<svg version="1.1" id="Layer_1" xmlns="http://www.w3.org/2000/svg" xmlns:xlink="http://www.w3.org/1999/xlink" x="0px" y="0px"
	 width="100%" viewBox="0 0 736 464" enable-background="new 0 0 736 464" xml:space="preserve">
<path fill="#000000" opacity="1.000000" stroke="none" 
	d="
M255.073975,313.401794 
	C236.645462,312.942383 228.010330,302.542969 230.168030,284.660004 
	C231.242126,275.757843 233.290161,266.943146 232.997467,257.888000 
	C232.626923,246.425003 225.869202,242.767166 216.046417,248.702606 
	C207.320663,253.975204 204.437668,263.036377 201.369659,271.799469 
	C197.408508,283.113647 194.899124,294.825836 193.197678,306.702759 
	C192.568436,311.095276 188.861481,314.169647 184.934830,313.712067 
	C180.499634,313.195190 177.427811,309.100159 178.119614,304.366760 
	C179.101303,297.649963 180.225800,290.954041 181.493210,282.963440 
	C178.187103,285.138153 175.909668,286.676697 173.592606,288.153076 
	C165.023621,293.613037 156.511230,299.166779 147.837555,304.455627 
	C142.839249,307.503418 138.410690,306.590240 136.088455,302.545563 
	C133.723297,298.426086 135.120972,294.513977 140.274704,291.397675 
	C153.682816,283.290192 166.798355,274.769775 179.301834,265.292755 
	C184.020020,261.716583 186.370544,257.641083 186.926620,251.571259 
	C189.004471,228.890503 190.661194,206.125900 195.722580,183.831665 
	C197.443680,176.250671 200.352676,169.249496 206.758148,164.206741 
	C213.428741,158.955246 220.684845,157.132996 228.695038,160.480408 
	C236.570038,163.771271 240.324936,170.365234 241.220444,178.412476 
	C242.756119,192.212280 238.832367,205.126343 233.753998,217.731827 
	C232.209427,221.565720 230.324219,225.262405 228.505890,229.215729 
	C229.399094,229.781509 230.016083,230.415985 230.746140,230.598755 
	C244.719620,234.097122 249.390121,247.722778 248.612000,259.919434 
	C248.082550,268.218109 247.190582,276.467896 245.652451,284.676422 
	C243.865280,294.213989 246.822556,297.563049 256.611206,297.847565 
	C263.349701,298.043457 269.775726,296.252808 276.171967,294.323883 
	C279.633881,293.279877 279.931580,291.614624 278.591400,288.389679 
	C271.991791,272.508453 273.212708,257.008667 282.500031,242.601685 
	C289.640289,231.525375 300.225403,226.823563 313.437622,228.787964 
	C326.765533,230.769562 335.221405,245.184006 331.660980,259.927856 
	C328.834717,271.631439 322.579620,281.280701 313.600403,289.232483 
	C312.028992,290.624084 309.967560,291.679108 309.595551,294.854889 
	C315.256042,297.605286 321.406036,297.323273 327.384155,296.598724 
	C338.543213,295.246185 347.690247,289.556122 355.944122,282.218384 
	C358.333130,280.094513 357.928925,277.425415 357.682098,274.795319 
	C355.159668,247.917145 358.784882,221.652161 365.773590,195.771210 
	C368.625488,185.210052 373.276245,175.422852 381.025665,167.475418 
	C387.130188,161.214874 394.513977,158.275299 403.228302,160.926956 
	C411.607910,163.476761 414.928436,170.209229 416.478760,178.160660 
	C418.444397,188.242081 416.164825,198.002686 414.401398,207.842148 
	C409.459351,235.417572 395.129272,258.306946 378.499084,280.023590 
	C376.222687,282.996216 375.946442,285.402191 377.596527,288.626465 
	C382.090088,297.406891 390.851013,300.911530 401.961487,298.221466 
	C412.518280,295.665436 420.976044,289.624512 428.722717,282.349976 
	C429.883179,281.260223 430.543396,280.218597 430.098419,278.435944 
	C425.195984,258.796326 428.548401,239.380386 432.093414,220.047668 
	C434.764404,205.481323 437.684174,190.918091 445.347351,177.879608 
	C448.242828,172.953064 451.560608,168.364059 456.237915,165.000229 
	C462.831848,160.257996 469.882904,159.054962 477.372009,162.910156 
	C484.611755,166.636978 487.848114,172.878906 488.315796,180.727859 
	C489.269135,196.727844 484.905212,211.740692 479.292358,226.417068 
	C471.954590,245.603699 463.294556,264.147766 450.745422,280.605652 
	C448.995667,282.900391 448.963654,284.934540 450.348602,287.473022 
	C456.993256,299.652130 471.212463,302.404205 482.802338,293.525879 
	C492.483093,286.109985 497.314667,275.479248 501.468323,264.502594 
	C503.880035,258.129303 505.708282,251.577484 509.362640,245.674332 
	C520.589233,227.539246 540.496277,224.653625 557.934509,232.759659 
	C561.805664,234.559128 565.047852,237.655838 569.722351,237.847656 
	C576.907532,238.142471 582.576599,235.004456 587.804749,230.617966 
	C588.694641,229.871338 589.408264,228.915955 590.291138,228.159439 
	C593.583801,225.337860 597.060303,224.584610 600.627747,227.619720 
	C603.830994,230.345001 604.184937,234.801376 601.141663,238.342148 
	C594.875854,245.632248 587.026550,250.418884 577.522461,252.321762 
	C576.219421,252.582626 574.904663,252.791168 573.612305,253.095779 
	C573.157288,253.203033 572.752930,253.525406 571.881470,253.982330 
	C573.688660,262.962646 573.558228,272.090546 571.204773,281.002106 
	C567.189819,296.204987 559.227417,308.327637 542.971619,312.318359 
	C527.403931,316.140167 511.897858,312.118652 504.740753,296.058929 
	C504.557251,295.647156 504.102997,295.356079 503.257355,294.460388 
	C494.849121,305.377075 484.295929,312.561493 470.334381,313.820190 
	C455.643433,315.144592 445.880249,307.163696 437.424042,296.176483 
	C434.056458,298.581238 431.040344,300.876343 427.886047,302.962555 
	C415.437866,311.195526 402.114807,316.118866 386.873688,313.423889 
	C378.195679,311.889404 371.424652,307.328613 366.681824,299.989685 
	C364.510773,296.630310 362.905365,296.583282 359.661285,298.949707 
	C339.647919,313.548828 318.293915,317.411072 295.443268,305.837402 
	C292.474457,304.333740 290.115845,304.996368 287.449921,306.275818 
	C277.379578,311.108795 266.753876,313.564453 255.073975,313.401794 
M531.727966,298.669464 
	C542.435913,298.880707 549.757080,293.736694 554.207825,284.258331 
	C557.701233,276.818787 558.615234,268.896332 557.529480,260.843170 
	C556.210083,251.057404 551.814575,245.988937 543.651184,244.040115 
	C535.474792,242.088211 528.409546,244.831894 523.028503,252.668823 
	C515.688660,263.358429 514.599731,275.199097 517.764099,287.505066 
	C519.475037,294.158997 523.960144,297.946289 531.727966,298.669464 
M400.635132,178.193466 
	C397.131470,174.576767 394.714844,174.726761 390.974670,179.168503 
	C387.084320,183.788605 384.196747,189.057434 382.270020,194.768326 
	C375.624573,214.465714 372.721466,234.795227 372.323090,255.522278 
	C372.295441,256.960571 371.928589,258.564728 373.622528,259.817047 
	C374.061737,259.461273 374.667297,259.159088 375.003418,258.671204 
	C385.634216,243.241257 394.690979,227.057953 398.497803,208.447540 
	C400.488617,198.715027 403.200531,189.018799 400.635132,178.193466 
M445.384003,230.790421 
	C444.014648,241.315887 442.231506,251.825531 443.561523,263.390625 
	C444.751007,262.136932 445.305511,261.734314 445.622101,261.192627 
	C457.842438,240.282028 467.980743,218.506927 472.528412,194.523895 
	C473.383301,190.015427 474.514038,185.368408 473.210205,180.697098 
	C471.937744,176.138168 468.788605,174.919174 464.952637,177.613434 
	C463.620544,178.549042 462.447693,179.803741 461.445129,181.100571 
	C456.371643,187.662949 453.376678,195.243576 451.403992,203.180420 
	C449.202057,212.039688 447.442932,221.009018 445.384003,230.790421 
M209.237427,230.754044 
	C213.944931,224.444092 217.760864,217.590485 220.552429,210.273712 
	C224.054367,201.095139 226.874695,191.677475 226.662415,181.678696 
	C226.594101,178.461166 225.271225,175.627914 222.106079,174.587189 
	C218.595505,173.432892 215.991226,175.469772 214.095627,178.240128 
	C212.203171,181.005890 211.029846,184.120255 210.270721,187.399551 
	C207.867218,197.782379 206.434357,208.328644 205.405136,218.907166 
	C204.890518,224.196732 203.078445,229.544128 204.692581,235.042221 
	C207.147720,234.613602 207.791367,232.760208 209.237427,230.754044 
M296.488434,249.993607 
	C289.249023,259.156158 288.371277,269.295013 292.028564,280.044952 
	C292.689880,281.988739 293.591125,284.736694 296.529327,282.823059 
	C306.740875,276.172455 314.543518,267.599640 316.756531,255.151825 
	C317.439423,251.310776 316.966705,247.327133 312.838226,245.231796 
	C308.451752,243.005554 304.125214,243.510117 300.141388,246.304672 
	C298.940613,247.146973 298.032776,248.406876 296.488434,249.993607 
z"/>
</svg>